<svg xmlns="http://www.w3.org/2000/svg" version="1.1" xmlns:xlink="http://www.w3.org/1999/xlink" xmlns:svgjs="http://svgjs.dev/svgjs" width="1000" height="1000" viewBox="0 0 1000 1000"><rect width="1000" height="1000" fill="#000000"></rect><g transform="matrix(0.7,0,0,0.7,149.57575872565462,433.3200791430472)"><svg viewBox="0 0 396 76" data-background-color="#54077a" preserveAspectRatio="xMidYMid meet" height="191" width="1000" xmlns="http://www.w3.org/2000/svg" xmlns:xlink="http://www.w3.org/1999/xlink"><g id="tight-bounds" transform="matrix(1,0,0,1,0.2399993528313189,-0.09667924361698965)"><svg viewBox="0 0 395.52 76.19335800161048" height="76.19335800161048" width="395.52"><g><svg viewBox="0 0 563.9306640625 108.63615234375" height="76.19335800161048" width="395.52"><g><svg viewBox="0 0 563.9306640625 108.63615234375" height="108.63615234375" width="563.9306640625"><g id="textblocktransform"><svg viewBox="0 0 563.9306640625 108.63615234375" height="108.63615234375" width="563.9306640625" id="textblock"><g><svg viewBox="0 0 563.9306640625 71.103515625" height="71.103515625" width="563.9306640625"><g><svg><g></g><g></g></svg></g><g><svg><g></g><g><svg></svg></g></svg></g><g id="text-0"><svg viewBox="0 0 563.9306640625 71.103515625" height="71.103515625" width="563.9306640625"><g transform="matrix(1,0,0,1,0,13.5791015625)"><svg width="228.3203125" viewBox="1.3700000047683716 -42.189998626708984 228.30999755859375 43.94999694824219" height="43.9453125" data-palette-color="#ffffff"><path d="M32.79-26.61L32.79-26.61 31.35-25.66Q30.03-27.61 27.92-28.75 25.81-29.88 23.34-29.88L23.34-29.88Q19.34-29.88 16.5-27.05 13.67-24.22 13.67-20.21 13.67-16.21 16.5-13.38 19.34-10.55 23.34-10.55L23.34-10.55Q25.81-10.55 27.92-11.69 30.03-12.84 31.35-14.79L31.35-14.79 32.76-13.77Q31.2-11.47 28.71-10.13 26.22-8.79 23.34-8.79L23.34-8.79Q21.02-8.79 18.91-9.69 16.8-10.6 15.26-12.13 13.72-13.67 12.82-15.78 11.91-17.9 11.91-20.21 11.91-22.53 12.82-24.65 13.72-26.76 15.26-28.3 16.8-29.83 18.91-30.74 21.02-31.64 23.34-31.64L23.34-31.64Q26.25-31.64 28.74-30.29 31.23-28.93 32.79-26.61ZM35.69-28.61L35.69-28.61 34.23-27.66Q32.42-30.3 29.55-31.85 26.68-33.4 23.34-33.4L23.34-33.4Q19.75-33.4 16.72-31.63 13.7-29.86 11.93-26.83 10.16-23.8 10.16-20.21 10.16-16.63 11.93-13.6 13.7-10.57 16.72-8.8 19.75-7.03 23.34-7.03L23.34-7.03Q26.68-7.03 29.57-8.59 32.45-10.16 34.25-12.82L34.25-12.82 35.69-11.82Q33.64-8.79 30.38-7.03 27.12-5.27 23.34-5.27L23.34-5.27Q19.29-5.27 15.84-7.28 12.4-9.28 10.4-12.72 8.4-16.16 8.4-20.21 8.4-24.27 10.4-27.71 12.4-31.15 15.84-33.15 19.29-35.16 23.34-35.16L23.34-35.16Q27.12-35.16 30.38-33.4 33.64-31.64 35.69-28.61ZM38.62-30.57L38.62-30.57 37.16-29.61Q34.86-32.98 31.21-34.95 27.56-36.91 23.34-36.91L23.34-36.91Q19.95-36.91 16.85-35.6 13.75-34.28 11.51-32.04 9.28-29.81 7.96-26.71 6.64-23.61 6.64-20.21 6.64-16.82 7.96-13.72 9.28-10.62 11.51-8.39 13.75-6.15 16.85-4.83 19.95-3.52 23.34-3.52L23.34-3.52Q27.59-3.52 31.23-5.49 34.86-7.47 37.16-10.84L37.16-10.84 38.57-9.79Q36.04-6.08 32.02-3.92 28-1.76 23.34-1.76L23.34-1.76Q18.33-1.76 14.09-4.24 9.84-6.71 7.36-10.96 4.88-15.21 4.88-20.21 4.88-25.22 7.36-29.47 9.84-33.72 14.09-36.19 18.33-38.67 23.34-38.67L23.34-38.67Q28.03-38.67 32.06-36.49 36.08-34.3 38.62-30.57ZM41.5-32.57L41.5-32.57 40.04-31.62Q37.26-35.69 32.85-38.06 28.44-40.43 23.34-40.43L23.34-40.43Q19.24-40.43 15.49-38.83 11.74-37.23 9.03-34.52 6.32-31.81 4.72-28.06 3.13-24.32 3.13-20.21 3.13-16.11 4.72-12.37 6.32-8.62 9.03-5.91 11.74-3.2 15.49-1.6 19.24 0 23.34 0L23.34 0Q28.44 0 32.86-2.39 37.28-4.79 40.06-8.86L40.06-8.86 41.48-7.79Q38.45-3.39 33.67-0.82 28.88 1.76 23.34 1.76L23.34 1.76Q18.87 1.76 14.81 0.01 10.74-1.73 7.8-4.68 4.86-7.62 3.11-11.68 1.37-15.75 1.37-20.21 1.37-24.68 3.11-28.75 4.86-32.81 7.8-35.75 10.74-38.7 14.81-40.44 18.87-42.19 23.34-42.19L23.34-42.19Q28.91-42.19 33.69-39.6 38.48-37.01 41.5-32.57ZM69.75-11.87L62.33-11.87 63.03-13.62 69.04-13.62 69.75-11.87ZM71.16-8.35L60.96-8.35 61.64-10.11 70.41-10.11 71.16-8.35ZM72.53-4.83L59.59-4.83 60.28-6.59 71.8-6.59 72.53-4.83ZM60.35-38.06L45.31 0 43.41 0 59.4-40.43 61.3-40.43 77.27 0 75.39 0 60.35-38.06ZM47.19 0L60.57-33.89 61.57-31.64 49.07 0 47.19 0ZM50.97 0L62.52-29.25 63.45-26.83 52.88 0 50.97 0ZM54.76 0L64.38-24.41 65.31-21.95 56.64 0 54.76 0ZM72.63-40.43L88.62 0 86.72 0 70.75-40.43 72.63-40.43ZM66.97-40.43L68.85-40.43 84.84 0 82.96 0 66.97-40.43ZM63.18-40.43L65.06-40.43 81.05 0 79.15 0 63.18-40.43ZM108.03-24.61L108.03-24.61 105.07-24.61Q103.19-24.61 102.36-25.57 101.53-26.54 101.53-28.13L101.53-28.13Q101.53-31.64 106.78-31.64L106.78-31.64Q111.71-31.64 114.2-30.18L114.2-30.18 112.79-29.1Q111.08-29.88 106.78-29.88L106.78-29.88Q104.68-29.88 103.96-29.42 103.24-28.96 103.24-28.13 103.24-27.29 103.63-26.83 104.02-26.37 105.07-26.37L105.07-26.37 108.1-26.37Q111.4-26.37 114.05-25.24 116.69-24.12 118.4-22.18 120.11-20.24 121.02-17.71 121.92-15.19 121.92-12.3L121.92-12.3Q121.92-9.96 121.26-7.86 120.6-5.76 119.27-4 117.94-2.25 116.07-0.96 114.2 0.32 111.63 1.04 109.05 1.76 106.05 1.76L106.05 1.76Q101.34 1.76 97.22 0.33 93.11-1.1 90.38-3.66L90.38-3.66 91.79-4.71Q94.28-2.47 98.03-1.23 101.78 0 106.05 0L106.05 0Q109.39 0 112.09-0.96 114.79-1.93 116.54-3.61 118.28-5.3 119.22-7.52 120.16-9.74 120.16-12.3L120.16-12.3Q120.16-15.7 118.79-18.44 117.43-21.19 114.63-22.9 111.84-24.61 108.03-24.61ZM105.07-22.85L105.07-22.85 107.86-22.85Q112.81-22.85 115.61-19.82 118.4-16.8 118.4-12.3L118.4-12.3Q118.4-7.74 115.16-4.75 111.91-1.76 106.05-1.76L106.05-1.76Q102.14-1.76 98.75-2.83 95.36-3.91 93.11-5.86L93.11-5.86 94.48-6.96Q96.48-5.32 99.52-4.42 102.56-3.52 106.05-3.52L106.05-3.52Q111.2-3.52 113.92-5.98 116.65-8.45 116.65-12.3L116.65-12.3Q116.65-16.11 114.36-18.6 112.08-21.09 107.83-21.09L107.83-21.09 105.07-21.09Q101.51-21.09 99.73-23.05 97.94-25 97.94-28.13 97.94-31.25 100.15-33.2 102.36-35.16 106.78-35.16L106.78-35.16Q109.88-35.16 112.54-34.44 115.2-33.72 116.94-32.37L116.94-32.37 115.55-31.3Q112.5-33.4 106.78-33.4L106.78-33.4Q103.1-33.4 101.4-31.95 99.7-30.49 99.7-28.13L99.7-28.13Q99.7-25.73 100.96-24.29 102.22-22.85 105.07-22.85ZM105.07-19.34L105.07-19.34 107.76-19.34Q111.32-19.34 113.11-17.36 114.89-15.38 114.89-12.3L114.89-12.3Q114.89-9.18 112.68-7.23 110.47-5.27 106.05-5.27L106.05-5.27Q102.95-5.27 100.28-5.99 97.6-6.71 95.87-8.06L95.87-8.06 97.26-9.13Q100.31-7.03 106.05-7.03L106.05-7.03Q109.74-7.03 111.43-8.48 113.13-9.94 113.13-12.3 113.13-14.67 111.86-16.13 110.59-17.58 107.73-17.58L107.73-17.58 105.07-17.58Q100.07-17.58 97.25-20.57 94.43-23.56 94.43-28.13 94.43-32.69 97.68-35.68 100.92-38.67 106.78-38.67L106.78-38.67Q110.69-38.67 114.07-37.6 117.45-36.52 119.7-34.57L119.7-34.57 118.33-33.47Q116.33-35.11 113.3-36.01 110.27-36.91 106.78-36.91L106.78-36.91Q101.63-36.91 98.91-34.45 96.19-31.98 96.19-28.13L96.19-28.13Q96.19-24.29 98.48-21.81 100.78-19.34 105.07-19.34ZM105.07-15.82L105.07-15.82 107.76-15.82Q109.64-15.82 110.47-14.84 111.3-13.87 111.3-12.3L111.3-12.3Q111.3-8.79 106.05-8.79L106.05-8.79Q101.09-8.79 98.6-10.25L98.6-10.25 100.02-11.33Q101.73-10.55 106.05-10.55L106.05-10.55Q108.15-10.55 108.87-11.01 109.59-11.47 109.59-12.3L109.59-12.3Q109.59-13.11 109.19-13.59 108.78-14.06 107.71-14.06L107.71-14.06 105.07-14.06Q101.7-14.06 98.98-15.16 96.26-16.26 94.51-18.19 92.77-20.12 91.84-22.66 90.91-25.2 90.91-28.13L90.91-28.13Q90.91-30.47 91.57-32.57 92.23-34.67 93.56-36.43 94.89-38.18 96.76-39.47 98.63-40.75 101.2-41.47 103.78-42.19 106.78-42.19L106.78-42.19Q111.49-42.19 115.6-40.76 119.7-39.33 122.43-36.77L122.43-36.77 121.02-35.72Q118.53-37.96 114.79-39.2 111.05-40.43 106.78-40.43L106.78-40.43Q103.44-40.43 100.74-39.47 98.04-38.5 96.3-36.82 94.55-35.13 93.61-32.91 92.67-30.69 92.67-28.13L92.67-28.13Q92.67-24.68 94.06-21.92 95.45-19.17 98.31-17.49 101.17-15.82 105.07-15.82ZM136.35 0L136.35-40.43 138.1-40.43 138.1 0 136.35 0ZM132.83 0L132.83-40.43 134.59-40.43 134.59 0 132.83 0ZM129.31 0L129.31-40.43 131.07-40.43 131.07 0 129.31 0ZM125.8 0L125.8-40.43 127.56-40.43 127.56 0 125.8 0ZM171.45-40.43L171.45-19.46 169.69-22.36 169.69-40.43 171.45-40.43ZM174.97-40.43L174.97-13.7 173.21-16.65 173.21-40.43 174.97-40.43ZM178.48-40.43L178.48-7.86 176.72-10.84 176.72-40.43 178.48-40.43ZM153.29 0L153.29-20.97 155.04-18.07 155.04 0 153.29 0ZM149.77 0L149.77-26.73 151.53-23.78 151.53 0 149.77 0ZM146.25 0L146.25-32.57 148.01-29.59 148.01 0 146.25 0ZM171.72 0L146.87-40.43 148.92-40.43 173.77 0 171.72 0ZM175.82 0L151.02-40.43 153.09-40.43 177.92 0 175.82 0ZM179.92 0L155.14-40.43 157.19-40.43 180.24-2.86 180.24-40.43 182-40.43 182 0Q182 0 179.92 0L179.92 0ZM167.59 0L144.5-37.57 144.5 0 142.74 0 142.74-40.43Q142.74-40.43 144.84-40.43L144.84-40.43 169.62 0 167.59 0ZM200.87-27.05Q198.03-24.22 198.03-20.21 198.03-16.21 200.87-13.38 203.7-10.55 207.7-10.55 211.71-10.55 214.54-13.38 217.37-16.21 217.37-20.21 217.37-24.22 214.54-27.05 211.71-29.88 207.7-29.88 203.7-29.88 200.87-27.05ZM197.18-15.78Q196.28-17.9 196.28-20.21 196.28-22.53 197.18-24.65 198.08-26.76 199.62-28.3 201.16-29.83 203.27-30.74 205.38-31.64 207.7-31.64 210.02-31.64 212.13-30.74 214.25-29.83 215.78-28.3 217.32-26.76 218.22-24.65 219.13-22.53 219.13-20.21 219.13-17.9 218.22-15.78 217.32-13.67 215.78-12.13 214.25-10.6 212.13-9.69 210.02-8.79 207.7-8.79 205.38-8.79 203.27-9.69 201.16-10.6 199.62-12.13 198.08-13.67 197.18-15.78ZM196.29-26.83Q194.52-23.8 194.52-20.21 194.52-16.63 196.29-13.6 198.06-10.57 201.09-8.8 204.11-7.03 207.7-7.03 211.29-7.03 214.32-8.8 217.35-10.57 219.12-13.6 220.89-16.63 220.89-20.21 220.89-23.8 219.12-26.83 217.35-29.86 214.32-31.63 211.29-33.4 207.7-33.4 204.11-33.4 201.09-31.63 198.06-29.86 196.29-26.83ZM194.76-12.72Q192.76-16.16 192.76-20.21 192.76-24.27 194.76-27.71 196.76-31.15 200.21-33.15 203.65-35.16 207.7-35.16 211.76-35.16 215.2-33.15 218.64-31.15 220.64-27.71 222.64-24.27 222.64-20.21 222.64-16.16 220.64-12.72 218.64-9.28 215.2-7.28 211.76-5.27 207.7-5.27 203.65-5.27 200.21-7.28 196.76-9.28 194.76-12.72ZM192.32-26.71Q191-23.61 191-20.21 191-16.82 192.32-13.72 193.64-10.62 195.87-8.39 198.11-6.15 201.21-4.83 204.31-3.52 207.7-3.52 211.1-3.52 214.2-4.83 217.3-6.15 219.53-8.39 221.76-10.62 223.08-13.72 224.4-16.82 224.4-20.21 224.4-23.61 223.08-26.71 221.76-29.81 219.53-32.04 217.3-34.28 214.2-35.6 211.1-36.91 207.7-36.91 204.31-36.91 201.21-35.6 198.11-34.28 195.87-32.04 193.64-29.81 192.32-26.71ZM191.72-10.96Q189.25-15.21 189.25-20.21 189.25-25.22 191.72-29.47 194.2-33.72 198.45-36.19 202.7-38.67 207.7-38.67 212.71-38.67 216.96-36.19 221.2-33.72 223.68-29.47 226.16-25.22 226.16-20.21 226.16-15.21 223.68-10.96 221.2-6.71 216.96-4.24 212.71-1.76 207.7-1.76 202.7-1.76 198.45-4.24 194.2-6.71 191.72-10.96ZM189.09-28.06Q187.49-24.32 187.49-20.21 187.49-16.11 189.09-12.37 190.69-8.62 193.4-5.91 196.11-3.2 199.85-1.6 203.6 0 207.7 0 211.8 0 215.55-1.6 219.3-3.2 222.01-5.91 224.72-8.62 226.32-12.37 227.92-16.11 227.92-20.21 227.92-24.32 226.32-28.06 224.72-31.81 222.01-34.52 219.3-37.23 215.55-38.83 211.8-40.43 207.7-40.43 203.6-40.43 199.85-38.83 196.11-37.23 193.4-34.52 190.69-31.81 189.09-28.06ZM187.48-11.68Q185.73-15.75 185.73-20.21 185.73-24.68 187.48-28.75 189.22-32.81 192.16-35.75 195.1-38.7 199.17-40.44 203.23-42.19 207.7-42.19 212.17-42.19 216.24-40.44 220.3-38.7 223.24-35.75 226.18-32.81 227.93-28.75 229.68-24.68 229.68-20.21 229.68-15.75 227.93-11.68 226.18-7.62 223.24-4.68 220.3-1.73 216.24 0.01 212.17 1.76 207.7 1.76 203.23 1.76 199.17 0.01 195.1-1.73 192.16-4.68 189.22-7.62 187.48-11.68Z" opacity="1" transform="matrix(1,0,0,1,0,0)" fill="#ffffff" class="undefined-p-0"></path></svg></g><g><svg xmlns="http://www.w3.org/2000/svg" xmlns:xlink="http://www.w3.org/1999/xlink" version="1.1" x="245.107421875" y="0" viewBox="1 1 62 62" style="enable-background:new 0 0 64 64;" xml:space="preserve" height="71.103515625" width="71.103515625" class="icon-s-0" data-fill-palette-color="accent" id="s-0"><g fill="#ffffff" data-fill-palette-color="accent"><path d="M58 57V20c0-2.757-2.243-5-5-5h-9v-4h3c1.654 0 3-1.346 3-3V4c0-1.654-1.346-3-3-3H17c-1.654 0-3 1.346-3 3v4c0 1.654 1.346 3 3 3h3v4h-9c-2.757 0-5 2.243-5 5v37c-2.757 0-5 2.243-5 5v1h62v-1C63 59.243 60.757 57 58 57zM16 8V4c0-0.551 0.448-1 1-1h30c0.552 0 1 0.449 1 1v4c0 0.551-0.448 1-1 1H17C16.448 9 16 8.551 16 8zM22 11h20v4H22V11zM8 20c0-1.654 1.346-3 3-3h42c1.654 0 3 1.346 3 3v37H23.851C24.578 56.289 25 55.432 25 54.5c0-1.808-1.55-3.346-4-4.07v-5.242c1.79-1.039 3-2.973 3-5.188 0-1.093-0.299-2.116-0.812-3H52c1.103 0 2-0.897 2-2V21c0-1.103-0.897-2-2-2H12c-1.103 0-2 0.897-2 2v14c0 1.103 0.897 2 2 2h0.812C12.299 37.884 12 38.907 12 40c0 2.215 1.21 4.149 3 5.188v5.242c-2.45 0.724-4 2.262-4 4.07 0 0.932 0.422 1.789 1.149 2.5H8V20zM13 54.5c0-0.738 0.795-1.481 2-1.961V55h6v-2.461c1.205 0.48 2 1.223 2 1.961 0 1.183-2.054 2.5-5 2.5S13 55.683 13 54.5zM52 21v14H40V21H52zM38 35H26V21h12V35zM24 35h-2.69c-0.95-0.631-2.087-1-3.31-1s-2.36 0.369-3.31 1H12V21h12V35zM18 36c2.206 0 4 1.794 4 4s-1.794 4-4 4-4-1.794-4-4S15.794 36 18 36zM18 46c0.341 0 0.674-0.035 1-0.09V53h-2v-7.09C17.326 45.965 17.659 46 18 46zM3.171 61C3.584 59.836 4.696 59 6 59h52c1.304 0 2.416 0.836 2.829 2H3.171z" fill="#ffffff" data-fill-palette-color="accent"></path><rect x="18" y="5" width="2" height="2" fill="#ffffff" data-fill-palette-color="accent"></rect><rect x="22" y="5" width="20" height="2" fill="#ffffff" data-fill-palette-color="accent"></rect><rect x="44" y="5" width="2" height="2" fill="#ffffff" data-fill-palette-color="accent"></rect><polygon points="16,25 19.82,25 15.152,32.47 16.848,33.53 22,25.287 22,23 14,23 14,26 16,26  " fill="#ffffff" data-fill-palette-color="accent"></polygon><polygon points="30,26 30,25 33.82,25 29.152,32.47 30.848,33.53 36,25.287 36,23 28,23 28,26  " fill="#ffffff" data-fill-palette-color="accent"></polygon><polygon points="44,26 44,25 47.82,25 43.152,32.47 44.848,33.53 50,25.287 50,23 42,23 42,26  " fill="#ffffff" data-fill-palette-color="accent"></polygon><path d="M46 45h8v-6h-8V45zM48 41h4v2h-4V41z" fill="#ffffff" data-fill-palette-color="accent"></path><path d="M36 45h8v-6h-8V45zM38 41h4v2h-4V41z" fill="#ffffff" data-fill-palette-color="accent"></path><path d="M26 45h8v-6h-8V45zM28 41h4v2h-4V41z" fill="#ffffff" data-fill-palette-color="accent"></path><path d="M50 47c-2.206 0-4 1.794-4 4s1.794 4 4 4 4-1.794 4-4S52.206 47 50 47zM50 53c-1.103 0-2-0.897-2-2s0.897-2 2-2 2 0.897 2 2S51.103 53 50 53z" fill="#ffffff" data-fill-palette-color="accent"></path><path d="M40 47c-2.206 0-4 1.794-4 4s1.794 4 4 4 4-1.794 4-4S42.206 47 40 47zM40 53c-1.103 0-2-0.897-2-2s0.897-2 2-2 2 0.897 2 2S41.103 53 40 53z" fill="#ffffff" data-fill-palette-color="accent"></path><path d="M30 47c-2.206 0-4 1.794-4 4s1.794 4 4 4 4-1.794 4-4S32.206 47 30 47zM30 53c-1.103 0-2-0.897-2-2s0.897-2 2-2 2 0.897 2 2S31.103 53 30 53z" fill="#ffffff" data-fill-palette-color="accent"></path></g></svg></g><g transform="matrix(1,0,0,1,332.998046875,13.5791015625)"><svg width="230.9326171875" viewBox="2.2699999809265137 -42.189998626708984 230.9199981689453 43.94999694824219" height="43.9453125" data-palette-color="#ffffff"><path d="M15.55-18.36L15.55-20.12 26.15-20.12Q28.56-20.12 30.24-21.68 31.91-23.24 31.91-26.12L31.91-26.12Q31.91-28.25 30.15-29.94 28.39-31.64 26.15-31.64L26.15-31.64 11.06-31.64 11.06 0 9.3 0 9.3-33.4 26.15-33.4Q29.13-33.4 31.4-31.19 33.67-28.98 33.67-26.12L33.67-26.12Q33.67-22.61 31.47-20.48 29.27-18.36 26.15-18.36L26.15-18.36 15.55-18.36ZM15.55-14.84L15.55-16.6 26.15-16.6Q29.96-16.6 32.69-19.27 35.42-21.95 35.42-26.12L35.42-26.12Q35.42-29.71 32.63-32.43 29.83-35.16 26.15-35.16L26.15-35.16 7.54-35.16 7.54 0 5.79 0 5.79-36.91 26.15-36.91Q29.05-36.91 31.6-35.42 34.16-33.94 35.67-31.43 37.18-28.93 37.18-26.12L37.18-26.12Q37.18-21.31 33.92-18.08 30.66-14.84 26.15-14.84L26.15-14.84 15.55-14.84ZM15.55-11.33L15.55-13.09 26.15-13.09Q29.57-13.09 32.5-14.77 35.42-16.46 37.18-19.47 38.94-22.49 38.94-26.12L38.94-26.12Q38.94-29.42 37.19-32.31 35.45-35.21 32.5-36.94 29.54-38.67 26.15-38.67L26.15-38.67 4.03-38.67 4.03 0 2.27 0 2.27-40.43 26.15-40.43Q29.98-40.43 33.35-38.46 36.72-36.5 38.71-33.19 40.7-29.88 40.7-26.12L40.7-26.12Q40.7-21.78 38.83-18.48 36.96-15.19 33.76-13.33L33.76-13.33 38.31 0 36.45 0 32.1-12.5Q31.13-12.11 30.62-11.96L30.62-11.96 34.69 0 32.84 0 28.86-11.55Q28.64-11.5 27.29-11.38L27.29-11.38 31.08 0 29.22 0 25.49-11.33 23.9-11.33 27.47 0 25.61 0 22.02-11.33 15.55-11.33ZM14.58-28.13L14.58 0 12.82 0 12.82-29.88 26.15-29.88Q27.78-29.88 28.97-28.77 30.15-27.66 30.15-26.12L30.15-26.12Q30.15-21.88 26.15-21.88L26.15-21.88 15.55-21.88 15.55-23.63 26.15-23.63Q27.2-23.63 27.8-24.18 28.39-24.73 28.39-26.12L28.39-26.12Q28.39-26.98 27.75-27.55 27.1-28.13 26.15-28.13L26.15-28.13 14.58-28.13ZM53.22-27.05Q50.39-24.22 50.39-20.21 50.39-16.21 53.22-13.38 56.05-10.55 60.06-10.55 64.06-10.55 66.89-13.38 69.72-16.21 69.72-20.21 69.72-24.22 66.89-27.05 64.06-29.88 60.06-29.88 56.05-29.88 53.22-27.05ZM49.53-15.78Q48.63-17.9 48.63-20.21 48.63-22.53 49.53-24.65 50.44-26.76 51.98-28.3 53.51-29.83 55.62-30.74 57.74-31.64 60.06-31.64 62.38-31.64 64.49-30.74 66.6-29.83 68.14-28.3 69.68-26.76 70.58-24.65 71.48-22.53 71.48-20.21 71.48-17.9 70.58-15.78 69.68-13.67 68.14-12.13 66.6-10.6 64.49-9.69 62.38-8.79 60.06-8.79 57.74-8.79 55.62-9.69 53.51-10.6 51.98-12.13 50.44-13.67 49.53-15.78ZM48.64-26.83Q46.87-23.8 46.87-20.21 46.87-16.63 48.64-13.6 50.41-10.57 53.44-8.8 56.47-7.03 60.06-7.03 63.64-7.03 66.67-8.8 69.7-10.57 71.47-13.6 73.24-16.63 73.24-20.21 73.24-23.8 71.47-26.83 69.7-29.86 66.67-31.63 63.64-33.4 60.06-33.4 56.47-33.4 53.44-31.63 50.41-29.86 48.64-26.83ZM47.12-12.72Q45.11-16.16 45.11-20.21 45.11-24.27 47.12-27.71 49.12-31.15 52.56-33.15 56-35.16 60.06-35.16 64.11-35.16 67.55-33.15 70.99-31.15 73-27.71 75-24.27 75-20.21 75-16.16 73-12.72 70.99-9.28 67.55-7.28 64.11-5.27 60.06-5.27 56-5.27 52.56-7.28 49.12-9.28 47.12-12.72ZM44.68-26.71Q43.36-23.61 43.36-20.21 43.36-16.82 44.68-13.72 45.99-10.62 48.23-8.39 50.46-6.15 53.56-4.83 56.66-3.52 60.06-3.52 63.45-3.52 66.55-4.83 69.65-6.15 71.88-8.39 74.12-10.62 75.44-13.72 76.76-16.82 76.76-20.21 76.76-23.61 75.44-26.71 74.12-29.81 71.88-32.04 69.65-34.28 66.55-35.6 63.45-36.91 60.06-36.91 56.66-36.91 53.56-35.6 50.46-34.28 48.23-32.04 45.99-29.81 44.68-26.71ZM44.08-10.96Q41.6-15.21 41.6-20.21 41.6-25.22 44.08-29.47 46.56-33.72 50.8-36.19 55.05-38.67 60.06-38.67 65.06-38.67 69.31-36.19 73.56-33.72 76.04-29.47 78.51-25.22 78.51-20.21 78.51-15.21 76.04-10.96 73.56-6.71 69.31-4.24 65.06-1.76 60.06-1.76 55.05-1.76 50.8-4.24 46.56-6.71 44.08-10.96ZM41.44-28.06Q39.84-24.32 39.84-20.21 39.84-16.11 41.44-12.37 43.04-8.62 45.75-5.91 48.46-3.2 52.21-1.6 55.95 0 60.06 0 64.16 0 67.91-1.6 71.65-3.2 74.36-5.91 77.07-8.62 78.67-12.37 80.27-16.11 80.27-20.21 80.27-24.32 78.67-28.06 77.07-31.81 74.36-34.52 71.65-37.23 67.91-38.83 64.16-40.43 60.06-40.43 55.95-40.43 52.21-38.83 48.46-37.23 45.75-34.52 43.04-31.81 41.44-28.06ZM39.83-11.68Q38.08-15.75 38.08-20.21 38.08-24.68 39.83-28.75 41.57-32.81 44.52-35.75 47.46-38.7 51.52-40.44 55.59-42.19 60.06-42.19 64.52-42.19 68.59-40.44 72.65-38.7 75.6-35.75 78.54-32.81 80.28-28.75 82.03-24.68 82.03-20.21 82.03-15.75 80.28-11.68 78.54-7.62 75.6-4.68 72.65-1.73 68.59 0.01 64.52 1.76 60.06 1.76 55.59 1.76 51.52 0.01 47.46-1.73 44.52-4.68 41.57-7.62 39.83-11.68ZM89.52-40.43L99.19-20.34 98.31-18.41 87.76-40.43 89.52-40.43ZM93.04-40.43L100.95-24.19 100.04-22.27 91.28-40.43 93.04-40.43ZM96.55-40.43L102.7-28.03 101.83-26.1 94.79-40.43 96.55-40.43ZM100.48 0L100.48-13.62 113.2-40.43 114.96-40.43 102.24-13.62 102.24 0 100.48 0ZM104 0L104-13.62 116.72-40.43 118.48-40.43 105.76-13.62 105.76 0 104 0ZM107.51 0L107.51-13.62 120.23-40.43 121.99-40.43 109.27-13.62 109.27 0 107.51 0ZM86.01-40.43L97.85-15.48 109.69-40.43 111.45-40.43 98.73-13.62 98.73 0 96.97 0 96.97-13.62 84.25-40.43 86.01-40.43ZM149.99-11.87L142.57-11.87 143.28-13.62 149.28-13.62 149.99-11.87ZM151.41-8.35L141.2-8.35 141.89-10.11 150.65-10.11 151.41-8.35ZM152.78-4.83L139.84-4.83 140.52-6.59 152.04-6.59 152.78-4.83ZM140.59-38.06L125.55 0 123.65 0 139.64-40.43 141.55-40.43 157.51 0 155.63 0 140.59-38.06ZM127.43 0L140.81-33.89 141.81-31.64 129.31 0 127.43 0ZM131.22 0L142.77-29.25 143.69-26.83 133.12 0 131.22 0ZM135 0L144.62-24.41 145.55-21.95 136.88 0 135 0ZM152.87-40.43L168.86 0 166.96 0 150.99-40.43 152.87-40.43ZM147.21-40.43L149.09-40.43 165.08 0 163.2 0 147.21-40.43ZM143.43-40.43L145.31-40.43 161.3 0 159.39 0 143.43-40.43ZM171.94 0L171.94-40.43 173.7-40.43 173.7 0 171.94 0ZM182.49 0L182.49-40.43 184.24-40.43 184.24-8.79 198.31-8.79 198.31-7.03 184.24-7.03 184.24-5.27 198.31-5.27 198.31-3.52 184.24-3.52 184.24-1.76 198.31-1.76 198.31 0 182.49 0ZM178.97 0L178.97-40.43 180.73-40.43 180.73 0 178.97 0ZM175.45 0L175.45-40.43 177.21-40.43 177.21 0 175.45 0ZM210.97-40.43L210.97 0 209.22 0 209.22-40.43 210.97-40.43ZM207.46-40.43L207.46 0 205.7 0 205.7-40.43 207.46-40.43ZM203.94-40.43L203.94 0 202.18 0 202.18-40.43 203.94-40.43ZM214.49-15.82L214.49-8.79 233.19-8.79 233.19-7.03 214.49-7.03 214.49-5.27 233.19-5.27 233.19-3.52 214.49-3.52 214.49-1.76 233.19-1.76 233.19 0 212.73 0 212.73-40.43 233.19-40.43 233.19-38.67 214.49-38.67 214.49-36.91 233.19-36.91 233.19-35.16 214.49-35.16 214.49-33.4 233.19-33.4 233.19-31.64 214.49-31.64 214.49-24.61 224.08-24.61 224.08-22.85 214.49-22.85 214.49-21.09 224.08-21.09 224.08-19.34 214.49-19.34 214.49-17.58 224.08-17.58 224.08-15.82 214.49-15.82Z" opacity="1" transform="matrix(1,0,0,1,0,0)" fill="#ffffff" class="undefined-p-1"></path></svg></g></svg></g></svg></g><g transform="matrix(1,0,0,1,166.24234536536653,81.47794921875)"><svg viewBox="0 0 231.4459733317669 27.158203125" height="27.158203125" width="231.4459733317669"><g transform="matrix(1,0,0,1,0,0)"><svg width="231.4459733317669" viewBox="10.800000190734863 -41.5 509.989990234375 59.849998474121094" height="27.158203125" data-palette-color="#ffffff"><path d="M14.95-30.3L14.95-30.3Q12.95-30.3 11.88-31.43 10.8-32.55 10.8-34.15L10.8-34.15Q10.8-34.55 10.93-35.1 11.05-35.65 11.25-36.05L11.25-36.05Q11.9-35.75 13.18-35.63 14.45-35.5 16.15-35.5L16.15-35.5Q18.7-35.5 21.93-35.73 25.15-35.95 28.1-36.2 31.05-36.45 33.3-36.68 35.55-36.9 36.2-36.9L36.2-36.9Q38.05-36.9 38.88-35.52 39.7-34.15 40.1-31.85L40.1-31.85Q38.8-31.95 37.52-32.02 36.25-32.1 35.35-32.1L35.35-32.1Q33.75-32.1 32.13-32 30.5-31.9 28.85-31.7L28.85-31.7Q28.15-30.25 27.3-28.28 26.45-26.3 25.63-24.15 24.8-22 24.05-19.88 23.3-17.75 22.75-16.05L22.75-16.05Q21.65-12.75 20.83-9.95 20-7.15 19.38-4.73 18.75-2.3 18.3-0.1 17.85 2.1 17.5 4.2L17.5 4.2Q14.15 3.7 11.9 0L11.9 0Q12.3-1.55 12.88-3.38 13.45-5.2 14.23-7.53 15-9.85 16.05-12.8 17.1-15.75 18.45-19.5L18.45-19.5Q18.95-20.9 19.5-22.43 20.05-23.95 20.58-25.45 21.1-26.95 21.53-28.35 21.95-29.75 22.25-30.9L22.25-30.9Q20.15-30.65 18.28-30.48 16.4-30.3 14.95-30.3ZM33.45-0.85L33.45-0.85Q33.45-2.6 33.8-4.98 34.15-7.35 34.82-10.05 35.5-12.75 36.42-15.7 37.35-18.65 38.5-21.6L38.5-21.6Q39.5-24.25 40.82-26.95 42.15-29.65 43.7-32.25 45.25-34.85 46.92-37.2 48.6-39.55 50.3-41.5L50.3-41.5Q51.1-41.5 52.02-41.3 52.95-41.1 53.82-40.78 54.7-40.45 55.42-40 56.15-39.55 56.6-39.1L56.6-39.1Q52.85-35.25 49.85-31.33 46.85-27.4 45.1-23.95L45.1-23.95Q44.15-22.05 43.37-20.4 42.6-18.75 41.95-17.13 41.3-15.5 40.77-13.88 40.25-12.25 39.8-10.45L39.8-10.45Q49.4-22.7 54.05-22.7L54.05-22.7Q55.35-22.7 56.85-21.85 58.35-21 59.5-19.55L59.5-19.55Q57.95-17.85 56.3-15.45 54.65-13.05 53.27-10.63 51.9-8.2 51.02-6.13 50.15-4.05 50.15-3.05L50.15-3.05Q50.15-2.55 50.3-2.38 50.45-2.2 50.95-2.2L50.95-2.2Q51.7-2.2 52.15-2.4 52.6-2.6 52.7-2.6L52.7-2.6Q52.95-2.2 53-2.05 53.05-1.9 53.05-1.8L53.05-1.8Q53.05-1.6 52.45-1.23 51.85-0.85 51.02-0.48 50.2-0.1 49.4 0.2 48.6 0.5 48.2 0.5L48.2 0.5Q47.7 0.5 47.2 0.23 46.7-0.05 46.32-0.5 45.95-0.95 45.72-1.5 45.5-2.05 45.5-2.65L45.5-2.65Q45.5-3.4 45.92-4.88 46.35-6.35 47.1-8.33 47.85-10.3 48.9-12.65 49.95-15 51.15-17.45L51.15-17.45Q51.15-17.65 50.95-17.65L50.95-17.65Q50.8-17.65 50.17-17.25 49.55-16.85 49-16.45L49-16.45Q47.2-15.1 45.37-13.13 43.55-11.15 41.82-8.8 40.1-6.45 38.57-3.83 37.05-1.2 35.95 1.45L35.95 1.45Q35.8 1.8 35.5 2.1 35.2 2.4 35 2.4L35 2.4Q34.85 2.4 34.57 2.05 34.3 1.7 34.07 1.18 33.85 0.65 33.65 0.1 33.45-0.45 33.45-0.85ZM77.25-20.7L77.25-20.7Q77.05-17.6 76.15-15.38 75.25-13.15 73.57-11.48 71.9-9.8 69.5-8.45 67.09-7.1 63.9-5.85L63.9-5.85Q63.9-5.55 63.87-5.23 63.85-4.9 63.85-4.55L63.85-4.55Q63.85-3.9 63.95-3.2 64.05-2.5 64.3-1.9 64.55-1.3 65-0.93 65.45-0.55 66.15-0.55L66.15-0.55Q67.5-0.55 68.8-1.15 70.09-1.75 71.27-2.63 72.45-3.5 73.47-4.53 74.5-5.55 75.3-6.4L75.3-6.4Q75.8-5.95 76.15-5.55L76.15-5.55Q73.9-2.55 71.22-0.58 68.55 1.4 66.15 1.95L66.15 1.95Q62.7 1.55 60.77-0.58 58.85-2.7 58.85-5.7L58.85-5.7Q58.85-7.75 59.42-9.88 60-12 61.02-13.98 62.05-15.95 63.42-17.7 64.8-19.45 66.37-20.75 67.95-22.05 69.62-22.8 71.3-23.55 72.95-23.55L72.95-23.55Q75.25-23.25 77.25-20.7ZM73.8-19.05L73.8-19.05Q72.45-18.85 71-17.95 69.55-17.05 68.27-15.55 67-14.05 65.95-12.05 64.9-10.05 64.3-7.75L64.3-7.75Q68.3-9.75 70.95-12.68 73.59-15.6 73.8-19.05ZM111.14-2.9L111.14-2.9Q111.14-5 111.84-8.3 112.54-11.6 113.69-15.35L113.69-15.35Q110.39-15.1 107.07-14.7 103.74-14.3 101.29-14.25L101.29-14.25Q99.04-9 97.72-4.58 96.39-0.15 95.64 4.05L95.64 4.05Q93.74 3.6 92.49 2.48 91.24 1.35 90.19-0.35L90.19-0.35Q90.59-1.15 91.12-2.4 91.64-3.65 92.37-5.43 93.09-7.2 94.02-9.58 94.94-11.95 96.14-15.1L96.14-15.1Q94.49-15.8 93.94-17.05L93.94-17.05Q94.19-17.25 95.07-17.48 95.94-17.7 97.24-17.95L97.24-17.95 97.89-19.55Q98.94-22.25 99.62-24.1 100.29-25.95 100.77-27.73 101.24-29.5 101.67-31.65 102.09-33.8 102.69-37.1L102.69-37.1Q104.79-36.7 106.52-35.25 108.24-33.8 109.49-31.75L109.49-31.75Q109.04-31.15 108.39-29.95 107.74-28.75 106.97-27.08 106.19-25.4 105.29-23.33 104.39-21.25 103.34-18.95L103.34-18.95Q106.44-19.35 109.62-19.7 112.79-20.05 115.24-20.2L115.24-20.2Q116.14-22.8 117.12-25.28 118.09-27.75 119.04-29.8 119.99-31.85 120.87-33.4 121.74-34.95 122.44-35.7L122.44-35.7Q122.94-35.65 123.77-35.33 124.59-35 125.44-34.55 126.29-34.1 126.99-33.58 127.69-33.05 127.94-32.6L127.94-32.6Q127.04-31.75 126.14-30.4 125.24-29.05 124.37-27.3 123.49-25.55 122.64-23.5 121.79-21.45 121.04-19.25L121.04-19.25Q122.04-18.35 122.04-17L122.04-17Q122.04-16.05 121.64-15.25L121.64-15.25Q121.19-15.35 120.74-15.38 120.29-15.4 119.79-15.45L119.79-15.45Q118.94-12.75 118.24-10.1 117.54-7.45 117.07-5.05 116.59-2.65 116.32-0.65 116.04 1.35 116.04 2.7L116.04 2.7Q116.04 3.2 116.07 3.5 116.09 3.8 116.14 4L116.14 4Q115.04 3.95 114.54 3.63 114.04 3.3 113.79 2.93 113.54 2.55 113.34 2.18 113.14 1.8 112.69 1.6L112.69 1.6Q112.34 1.45 112.04 0.9 111.74 0.35 111.54-0.35 111.34-1.05 111.24-1.75 111.14-2.45 111.14-2.9ZM129.94 1.75L129.94 1.75Q127.09 1.45 125.39-0.75 123.69-2.95 123.69-6.35L123.69-6.35Q123.69-8.35 124.29-10.5 124.89-12.65 125.99-14.68 127.09-16.7 128.59-18.5 130.09-20.3 131.84-21.6L131.84-21.6Q134.59-23.65 136.99-23.65L136.99-23.65Q138.59-22.8 140.14-20.1L140.14-20.1Q140.39-20.1 140.59-20.13 140.79-20.15 141.04-20.15L141.04-20.15Q143.69-20.15 143.69-15.45L143.69-15.45Q143.69-12.3 142.66-9.47 141.64-6.65 139.81-4.35 137.99-2.05 135.46-0.48 132.94 1.1 129.94 1.75ZM132.49-14L132.49-14Q131.64-12.85 130.89-11.5 130.14-10.15 129.59-8.78 129.04-7.4 128.74-6.13 128.44-4.85 128.44-3.85L128.44-3.85Q128.44-2.65 128.84-1.55 129.24-0.45 129.74-0.3L129.74-0.3Q131.99-0.8 133.86-2.18 135.74-3.55 137.11-5.6 138.49-7.65 139.26-10.25 140.04-12.85 140.04-15.8L140.04-15.8Q140.04-17.1 139.89-17.85 139.74-18.6 139.39-19.15L139.39-19.15Q137.19-18.5 135.46-17.05 133.74-15.6 132.49-14ZM174.99-15.35L174.99-15.35Q174.19-15.3 173.04-14.33 171.89-13.35 170.56-11.83 169.24-10.3 167.81-8.45 166.39-6.6 165.06-4.78 163.74-2.95 162.59-1.35 161.44 0.25 160.64 1.2L160.64 1.2Q159.54 0.75 158.74-0.13 157.94-1 157.59-2.3L157.59-2.3Q157.84-3.85 158.29-5.53 158.74-7.2 159.46-9 160.19-10.8 161.26-12.78 162.34-14.75 163.89-16.95L163.89-16.95Q163.14-16.9 161.84-15.88 160.54-14.85 159.04-13.23 157.54-11.6 155.94-9.58 154.34-7.55 152.94-5.6L152.94-5.6Q151.09-3 149.86-1.05 148.64 0.9 148.09 1.25L148.09 1.25Q146.79 0.3 146.29-0.8 145.79-1.9 145.54-3.25L145.54-3.25Q145.59-4.45 145.91-6.25 146.24-8.05 146.84-9.95L146.84-9.95Q147.99-13.6 149.81-17.2 151.64-20.8 153.34-23.8L153.34-23.8Q154.74-23.5 155.86-22.85 156.99-22.2 158.24-20.95L158.24-20.95Q157.74-19.4 156.69-17.68 155.64-15.95 154.49-14.05 153.34-12.15 152.39-10.15 151.44-8.15 151.14-6.1L151.14-6.1Q152.54-8.1 154.46-10.7 156.39-13.3 158.41-15.6 160.44-17.9 162.44-19.5 164.44-21.1 166.04-21.1L166.04-21.1Q166.64-21.1 167.34-20.9 168.04-20.7 168.64-20.4 169.24-20.1 169.64-19.83 170.04-19.55 170.09-19.4L170.09-19.4Q169.84-18.4 168.91-16.68 167.99-14.95 166.94-13.05 165.89-11.15 164.99-9.38 164.09-7.6 163.94-6.55L163.94-6.55Q166.39-9.9 168.54-12.63 170.69-15.35 172.59-17.3 174.49-19.25 176.11-20.3 177.74-21.35 179.19-21.35L179.19-21.35Q180.19-21.35 181.06-20.83 181.94-20.3 182.29-19.3L182.29-19.3Q181.84-17.8 180.81-15.7 179.79-13.6 178.74-11.28 177.69-8.95 176.86-6.7 176.04-4.45 176.04-2.65L176.04-2.65Q176.04-1.6 176.34-1.28 176.64-0.95 177.19-0.95L177.19-0.95Q177.79-0.95 178.31-1.18 178.84-1.4 179.09-1.4L179.09-1.4Q179.39-1.2 179.44-0.9 179.49-0.6 179.49-0.35L179.49-0.35Q178.49 0.45 177.44 0.98 176.39 1.5 175.09 1.5L175.09 1.5Q173.89 1.5 173.11 1.1 172.34 0.7 171.84 0 171.34-0.7 171.14-1.6 170.94-2.5 170.94-3.55L170.94-3.55Q170.94-5.25 171.39-6.93 171.84-8.6 172.46-10.13 173.09-11.65 173.79-12.98 174.49-14.3 174.99-15.35ZM202.23-20.7L202.23-20.7Q202.03-17.6 201.13-15.38 200.23-13.15 198.56-11.48 196.88-9.8 194.48-8.45 192.08-7.1 188.88-5.85L188.88-5.85Q188.88-5.55 188.86-5.23 188.83-4.9 188.83-4.55L188.83-4.55Q188.83-3.9 188.93-3.2 189.03-2.5 189.28-1.9 189.53-1.3 189.98-0.93 190.43-0.55 191.13-0.55L191.13-0.55Q192.48-0.55 193.78-1.15 195.08-1.75 196.26-2.63 197.43-3.5 198.46-4.53 199.48-5.55 200.28-6.4L200.28-6.4Q200.78-5.95 201.13-5.55L201.13-5.55Q198.88-2.55 196.21-0.58 193.53 1.4 191.13 1.95L191.13 1.95Q187.68 1.55 185.76-0.58 183.83-2.7 183.83-5.7L183.83-5.7Q183.83-7.75 184.41-9.88 184.98-12 186.01-13.98 187.03-15.95 188.41-17.7 189.78-19.45 191.36-20.75 192.93-22.05 194.61-22.8 196.28-23.55 197.93-23.55L197.93-23.55Q200.23-23.25 202.23-20.7ZM198.78-19.05L198.78-19.05Q197.43-18.85 195.98-17.95 194.53-17.05 193.26-15.55 191.98-14.05 190.93-12.05 189.88-10.05 189.28-7.75L189.28-7.75Q193.28-9.75 195.93-12.68 198.58-15.6 198.78-19.05ZM239.68-36.4L239.68-36.4Q240.63-36 241.63-35.38 242.63-34.75 243.48-34.1 244.33-33.45 244.9-32.83 245.48-32.2 245.53-31.8L245.53-31.8Q244.68-32 243.83-32.08 242.98-32.15 242.28-32.15L242.28-32.15Q240.03-32.15 237.8-31.05 235.58-29.95 233.58-28.05 231.58-26.15 229.88-23.6 228.18-21.05 226.95-18.15 225.73-15.25 225.03-12.15 224.33-9.05 224.33-6.05L224.33-6.05Q224.33-2.15 225.63-0.25 226.93 1.65 229.43 1.65L229.43 1.65Q230.63 1.65 232.03 1.18 233.43 0.7 234.88-0.15 236.33-1 237.73-2.2 239.13-3.4 240.33-4.85L240.33-4.85Q242.08-6.95 243.48-9.63 244.88-12.3 245.85-15.3 246.83-18.3 247.35-21.48 247.88-24.65 247.88-27.7L247.88-27.7Q247.88-28.9 247.83-29.73 247.78-30.55 247.7-31.13 247.63-31.7 247.58-32.05 247.53-32.4 247.48-32.65L247.48-32.65Q248.08-32.35 248.8-31.93 249.53-31.5 250.15-30.68 250.78-29.85 251.2-28.5 251.63-27.15 251.63-25L251.63-25Q251.63-21.5 250.8-18.13 249.98-14.75 248.5-11.7 247.03-8.65 245.03-6 243.03-3.35 240.73-1.35L240.73-1.35Q237.73 1.3 234.33 2.75 230.93 4.2 227.78 4.2L227.78 4.2Q223.18 4.2 220.75 1.28 218.33-1.65 218.33-7.35L218.33-7.35Q218.33-10.4 219-13.8 219.68-17.2 220.9-20.5 222.13-23.8 223.83-26.78 225.53-29.75 227.55-32.02 229.58-34.3 231.9-35.65 234.23-37 236.68-37L236.68-37Q237.48-37 238.18-36.88 238.88-36.75 239.68-36.4ZM255.08 14.45L255.08 14.45Q253.83 13.95 253.58 12.55L253.58 12.55Q253.38 11.2 251.88 10.35L251.88 10.35Q252.28 7.8 252.78 5.2 253.28 2.6 254.05-0.73 254.83-4.05 256-8.47 257.18-12.9 258.98-19.2L258.98-19.2Q257.33-19.2 256.38-19.15 255.43-19.1 254.53-18.95L254.53-18.95Q254.33-19.15 254.2-19.5 254.08-19.85 254.08-20.15L254.08-20.15Q254.58-20.35 256.13-20.68 257.68-21 259.53-21.25L259.53-21.25Q260.73-25.05 262.28-28.08 263.83-31.1 265.63-33.25 267.43-35.4 269.43-36.55 271.43-37.7 273.48-37.7L273.48-37.7Q274.08-37.7 274.63-37.63 275.18-37.55 275.48-37.55L275.48-37.55Q275.93-37.9 276.68-38.18 277.43-38.45 277.98-38.45L277.98-38.45Q278.58-38.45 279.53-37.8L279.53-37.8Q279.13-37.1 278.68-35.9 278.23-34.7 277.93-33.55L277.93-33.55Q276.68-29.85 275.28-28.75L275.28-28.75Q274.73-28.75 274.68-30.2L274.68-30.2Q274.63-31.25 274.38-32.25L274.38-32.25Q274.18-32.7 274.1-33.05 274.03-33.4 274.03-33.95L274.03-33.95Q274.03-34.25 274.08-34.68 274.13-35.1 274.28-36.1L274.28-36.1Q273.43-36.1 272.4-35.05 271.38-34 270.25-32.08 269.13-30.15 267.98-27.5 266.83-24.85 265.78-21.65L265.78-21.65 269.98-21.8Q270.23-21.55 270.4-20.68 270.58-19.8 270.63-18.85L270.63-18.85 265.13-19.15Q263.23-13.5 261.58-8.35 259.93-3.2 258.63 1.15 257.33 5.5 256.4 8.93 255.48 12.35 255.08 14.45ZM301.02-2.9L301.02-2.9Q301.02-5 301.72-8.3 302.42-11.6 303.57-15.35L303.57-15.35Q300.27-15.1 296.95-14.7 293.62-14.3 291.17-14.25L291.17-14.25Q288.92-9 287.6-4.58 286.27-0.15 285.52 4.05L285.52 4.05Q283.62 3.6 282.37 2.48 281.12 1.35 280.07-0.35L280.07-0.35Q280.47-1.15 281-2.4 281.52-3.65 282.25-5.43 282.97-7.2 283.9-9.58 284.82-11.95 286.02-15.1L286.02-15.1Q284.37-15.8 283.82-17.05L283.82-17.05Q284.07-17.25 284.95-17.48 285.82-17.7 287.12-17.95L287.12-17.95 287.77-19.55Q288.82-22.25 289.5-24.1 290.17-25.95 290.65-27.73 291.12-29.5 291.55-31.65 291.97-33.8 292.57-37.1L292.57-37.1Q294.67-36.7 296.4-35.25 298.12-33.8 299.37-31.75L299.37-31.75Q298.92-31.15 298.27-29.95 297.62-28.75 296.85-27.08 296.07-25.4 295.17-23.33 294.27-21.25 293.22-18.95L293.22-18.95Q296.32-19.35 299.5-19.7 302.67-20.05 305.12-20.2L305.12-20.2Q306.02-22.8 307-25.28 307.97-27.75 308.92-29.8 309.87-31.85 310.75-33.4 311.62-34.95 312.32-35.7L312.32-35.7Q312.82-35.65 313.65-35.33 314.47-35 315.32-34.55 316.17-34.1 316.87-33.58 317.57-33.05 317.82-32.6L317.82-32.6Q316.92-31.75 316.02-30.4 315.12-29.05 314.25-27.3 313.37-25.55 312.52-23.5 311.67-21.45 310.92-19.25L310.92-19.25Q311.92-18.35 311.92-17L311.92-17Q311.92-16.05 311.52-15.25L311.52-15.25Q311.07-15.35 310.62-15.38 310.17-15.4 309.67-15.45L309.67-15.45Q308.82-12.75 308.12-10.1 307.42-7.45 306.95-5.05 306.47-2.65 306.2-0.65 305.92 1.35 305.92 2.7L305.92 2.7Q305.92 3.2 305.95 3.5 305.97 3.8 306.02 4L306.02 4Q304.92 3.95 304.42 3.63 303.92 3.3 303.67 2.93 303.42 2.55 303.22 2.18 303.02 1.8 302.57 1.6L302.57 1.6Q302.22 1.45 301.92 0.9 301.62 0.35 301.42-0.35 301.22-1.05 301.12-1.75 301.02-2.45 301.02-2.9ZM314.17-3.35L314.17-3.35Q314.17-3.8 314.24-4.48 314.32-5.15 314.52-6.28 314.72-7.4 315.04-9 315.37-10.6 315.87-12.85L315.87-12.85Q315.97-13.35 316.32-14.45 316.67-15.55 317.24-16.78 317.82-18 318.64-19.15 319.47-20.3 320.62-20.85L320.62-20.85Q321.47-20.65 322.87-19.83 324.27-19 325.27-17.55L325.27-17.55Q324.12-16.25 323.34-14.95 322.57-13.65 321.94-12.25 321.32-10.85 320.79-9.35 320.27-7.85 319.62-6.2L319.62-6.2Q319.07-4.8 318.62-3.33 318.17-1.85 318.12-0.75L318.12-0.75Q318.12 0.15 318.09 0.53 318.07 0.9 317.82 0.9L317.82 0.9Q317.62 0.9 317.02 0.65 316.42 0.4 315.79-0.13 315.17-0.65 314.67-1.45 314.17-2.25 314.17-3.35ZM323.72-25.05L323.72-25.05Q323.72-25.35 323.87-25.95L323.87-25.95Q323.62-26.2 323.44-26.7 323.27-27.2 323.27-27.6L323.27-27.6Q323.27-28.05 323.39-28.83 323.52-29.6 323.72-30.5 323.92-31.4 324.22-32.38 324.52-33.35 324.82-34.15L324.82-34.15Q325.42-34.15 326.29-33.83 327.17-33.5 328.07-32.98 328.97-32.45 329.72-31.83 330.47-31.2 330.87-30.65L330.87-30.65Q330.32-30.1 329.42-29.13 328.52-28.15 327.67-27.08 326.82-26 326.12-25.05 325.42-24.1 325.22-23.7L325.22-23.7Q324.62-23.8 324.17-24.23 323.72-24.65 323.72-25.05ZM315.82 14.9L315.82 14.9Q315.82 14.6 316.02 14.35 316.22 14.1 316.47 13.85L316.47 13.85Q317.07 14.4 317.49 14.7 317.92 15 318.29 15.2 318.67 15.4 319.07 15.45 319.47 15.5 320.02 15.5L320.02 15.5Q322.62 15.5 324.97 14.13 327.32 12.75 329.39 10.15 331.47 7.55 333.17 3.8 334.87 0.05 336.17-4.7L336.17-4.7Q335.57-4.1 334.69-3.38 333.82-2.65 332.87-2 331.92-1.35 330.99-0.8 330.07-0.25 329.42 0L329.42 0Q328.57-0.15 327.84-0.73 327.12-1.3 326.57-2.15 326.02-3 325.72-4.08 325.42-5.15 325.42-6.35L325.42-6.35Q325.42-8.3 326.14-10.35 326.87-12.4 328.07-14.38 329.27-16.35 330.89-18.1 332.52-19.85 334.34-21.15 336.17-22.45 338.04-23.23 339.92-24 341.72-24L341.72-24Q343.47-24 344.34-23.28 345.22-22.55 345.62-20.8L345.62-20.8Q345.07-21.1 344.22-21.1L344.22-21.1Q343.02-21.1 341.44-20.15 339.87-19.2 338.24-17.68 336.62-16.15 335.02-14.18 333.42-12.2 332.19-10.15 330.97-8.1 330.19-6.15 329.42-4.2 329.42-2.65L329.42-2.65Q329.42-2.3 329.47-2.23 329.52-2.15 329.62-2.15L329.62-2.15Q330.07-2.15 330.84-2.65 331.62-3.15 332.59-3.93 333.57-4.7 334.62-5.73 335.67-6.75 336.62-7.8L336.62-7.8Q338.77-10.2 340.54-13.18 342.32-16.15 343.37-18.95L343.37-18.95Q344.72-18.85 345.77-18.5 346.82-18.15 347.22-17.75L347.22-17.75Q345.52-13.85 344.49-11.2 343.47-8.55 342.72-6.5L342.72-6.5Q341.37-2.9 340.19 0.08 339.02 3.05 337.79 5.58 336.57 8.1 335.14 10.28 333.72 12.45 331.92 14.45L331.92 14.45Q331.07 15.4 329.99 16.13 328.92 16.85 327.79 17.35 326.67 17.85 325.59 18.1 324.52 18.35 323.62 18.35L323.62 18.35Q322.42 18.35 321.17 18.07 319.92 17.8 318.84 17.32 317.77 16.85 316.97 16.23 316.17 15.6 315.82 14.9ZM348.36-0.85L348.36-0.85Q348.36-2.6 348.71-4.98 349.06-7.35 349.74-10.05 350.41-12.75 351.34-15.7 352.26-18.65 353.41-21.6L353.41-21.6Q354.41-24.25 355.74-26.95 357.06-29.65 358.61-32.25 360.16-34.85 361.84-37.2 363.51-39.55 365.21-41.5L365.21-41.5Q366.01-41.5 366.94-41.3 367.86-41.1 368.74-40.78 369.61-40.45 370.34-40 371.06-39.55 371.51-39.1L371.51-39.1Q367.76-35.25 364.76-31.33 361.76-27.4 360.01-23.95L360.01-23.95Q359.06-22.05 358.29-20.4 357.51-18.75 356.86-17.13 356.21-15.5 355.69-13.88 355.16-12.25 354.71-10.45L354.71-10.45Q364.31-22.7 368.96-22.7L368.96-22.7Q370.26-22.7 371.76-21.85 373.26-21 374.41-19.55L374.41-19.55Q372.86-17.85 371.21-15.45 369.56-13.05 368.19-10.63 366.81-8.2 365.94-6.13 365.06-4.05 365.06-3.05L365.06-3.05Q365.06-2.55 365.21-2.38 365.36-2.2 365.86-2.2L365.86-2.2Q366.61-2.2 367.06-2.4 367.51-2.6 367.61-2.6L367.61-2.6Q367.86-2.2 367.91-2.05 367.96-1.9 367.96-1.8L367.96-1.8Q367.96-1.6 367.36-1.23 366.76-0.85 365.94-0.48 365.11-0.1 364.31 0.2 363.51 0.5 363.11 0.5L363.11 0.5Q362.61 0.5 362.11 0.23 361.61-0.05 361.24-0.5 360.86-0.95 360.64-1.5 360.41-2.05 360.41-2.65L360.41-2.65Q360.41-3.4 360.84-4.88 361.26-6.35 362.01-8.33 362.76-10.3 363.81-12.65 364.86-15 366.06-17.45L366.06-17.45Q366.06-17.65 365.86-17.65L365.86-17.65Q365.71-17.65 365.09-17.25 364.46-16.85 363.91-16.45L363.91-16.45Q362.11-15.1 360.29-13.13 358.46-11.15 356.74-8.8 355.01-6.45 353.49-3.83 351.96-1.2 350.86 1.45L350.86 1.45Q350.71 1.8 350.41 2.1 350.11 2.4 349.91 2.4L349.91 2.4Q349.76 2.4 349.49 2.05 349.21 1.7 348.99 1.18 348.76 0.65 348.56 0.1 348.36-0.45 348.36-0.85ZM420.36-27.55L420.36-27.55Q420.36-25.15 419.28-23.03 418.21-20.9 416.31-19.23 414.41-17.55 411.86-16.4 409.31-15.25 406.31-14.85L406.31-14.85Q407.06-12.6 408.13-10.23 409.21-7.85 410.46-5.65 411.71-3.45 413.06-1.6 414.41 0.25 415.71 1.45L415.71 1.45Q415.46 1.95 414.98 2.45 414.51 2.95 413.88 3.38 413.26 3.8 412.58 4.08 411.91 4.35 411.31 4.35L411.31 4.35Q410.21 4.35 409.21 3.3 408.21 2.25 407.18-0.03 406.16-2.3 405.03-5.93 403.91-9.55 402.56-14.65L402.56-14.65Q402.01-14.65 401.46-14.65 400.91-14.65 400.61-14.75L400.61-14.75Q400.26-14.95 399.86-15.45L399.86-15.45Q398.51-12.55 397.46-10 396.41-7.45 395.58-5.08 394.76-2.7 394.13-0.48 393.51 1.75 393.06 4.05L393.06 4.05Q391.36 3.65 390.11 2.6 388.86 1.55 387.76-0.35L387.76-0.35Q387.96-0.8 388.18-1.23 388.41-1.65 388.76-2.43 389.11-3.2 389.63-4.4 390.16-5.6 391.03-7.6 391.91-9.6 393.13-12.5 394.36-15.4 396.11-19.55L396.11-19.55Q396.91-21.4 397.48-22.8 398.06-24.2 398.51-25.48 398.96-26.75 399.33-28.03 399.71-29.3 400.11-30.95L400.11-30.95Q397.81-30.15 395.83-29.18 393.86-28.2 392.56-27.1L392.56-27.1Q392.11-27.4 391.63-28 391.16-28.6 390.76-29.33 390.36-30.05 390.06-30.8 389.76-31.55 389.71-32.15L389.71-32.15Q391.21-33.15 393.38-34 395.56-34.85 398.01-35.48 400.46-36.1 403.01-36.45 405.56-36.8 407.76-36.8L407.76-36.8Q413.76-36.8 417.06-34.33 420.36-31.85 420.36-27.55ZM407.56-32.7L408.16-31.75Q407.81-31.3 407.06-29.95 406.31-28.6 405.33-26.73 404.36-24.85 403.28-22.65 402.21-20.45 401.21-18.3L401.21-18.3Q404.96-18.3 408.11-19 411.26-19.7 413.56-20.98 415.86-22.25 417.13-23.98 418.41-25.7 418.41-27.8L418.41-27.8Q418.41-30.3 416.61-31.63 414.81-32.95 411.06-32.95L411.06-32.95Q410.21-32.95 409.36-32.88 408.51-32.8 407.56-32.7L407.56-32.7ZM424.46 1.75L424.46 1.75Q421.61 1.45 419.91-0.75 418.21-2.95 418.21-6.35L418.21-6.35Q418.21-8.35 418.81-10.5 419.41-12.65 420.51-14.68 421.61-16.7 423.11-18.5 424.61-20.3 426.36-21.6L426.36-21.6Q429.11-23.65 431.51-23.65L431.51-23.65Q433.11-22.8 434.66-20.1L434.66-20.1Q434.91-20.1 435.11-20.13 435.31-20.15 435.56-20.15L435.56-20.15Q438.21-20.15 438.21-15.45L438.21-15.45Q438.21-12.3 437.18-9.47 436.16-6.65 434.33-4.35 432.51-2.05 429.98-0.48 427.46 1.1 424.46 1.75ZM427.01-14L427.01-14Q426.16-12.85 425.41-11.5 424.66-10.15 424.11-8.78 423.56-7.4 423.26-6.13 422.96-4.85 422.96-3.85L422.96-3.85Q422.96-2.65 423.36-1.55 423.76-0.45 424.26-0.3L424.26-0.3Q426.51-0.8 428.38-2.18 430.26-3.55 431.63-5.6 433.01-7.65 433.78-10.25 434.56-12.85 434.56-15.8L434.56-15.8Q434.56-17.1 434.41-17.85 434.26-18.6 433.91-19.15L433.91-19.15Q431.71-18.5 429.98-17.05 428.26-15.6 427.01-14ZM440.55-3.2L440.55-3.2Q440.55-5.4 441.6-9.38 442.65-13.35 444.55-18.65L444.55-18.65Q447.65-27.1 450.38-32.73 453.1-38.35 455.7-41.5L455.7-41.5Q456.3-41.4 457.18-41 458.05-40.6 458.9-40.13 459.75-39.65 460.43-39.15 461.1-38.65 461.3-38.35L461.3-38.35Q457.4-33.75 454.45-28.45 451.5-23.15 449.05-16.3L449.05-16.3Q446.95-10.4 445.85-5.68 444.75-0.95 444.75 2.2L444.75 2.2Q444.75 3.05 444.75 3.25 444.75 3.45 444.8 3.65L444.8 3.65Q444.1 3.55 443.6 3.3 443.1 3.05 442.95 2.7L442.95 2.7Q442.85 2.45 442.4 1.98 441.95 1.5 441.6 1.25L441.6 1.25Q441.15 0.95 440.85-0.33 440.55-1.6 440.55-3.2ZM452.35-3.2L452.35-3.2Q452.35-5.4 453.4-9.38 454.45-13.35 456.35-18.65L456.35-18.65Q459.45-27.1 462.18-32.73 464.9-38.35 467.5-41.5L467.5-41.5Q468.1-41.4 468.98-41 469.85-40.6 470.7-40.13 471.55-39.65 472.23-39.15 472.9-38.65 473.1-38.35L473.1-38.35Q469.2-33.75 466.25-28.45 463.3-23.15 460.85-16.3L460.85-16.3Q458.75-10.4 457.65-5.68 456.55-0.95 456.55 2.2L456.55 2.2Q456.55 3.05 456.55 3.25 456.55 3.45 456.6 3.65L456.6 3.65Q455.9 3.55 455.4 3.3 454.9 3.05 454.75 2.7L454.75 2.7Q454.65 2.45 454.2 1.98 453.75 1.5 453.4 1.25L453.4 1.25Q452.95 0.95 452.65-0.33 452.35-1.6 452.35-3.2ZM481.9-20.7L481.9-20.7Q481.7-17.6 480.8-15.38 479.9-13.15 478.22-11.48 476.55-9.8 474.15-8.45 471.75-7.1 468.55-5.85L468.55-5.85Q468.55-5.55 468.52-5.23 468.5-4.9 468.5-4.55L468.5-4.55Q468.5-3.9 468.6-3.2 468.7-2.5 468.95-1.9 469.2-1.3 469.65-0.93 470.1-0.55 470.8-0.55L470.8-0.55Q472.15-0.55 473.45-1.15 474.75-1.75 475.92-2.63 477.1-3.5 478.12-4.53 479.15-5.55 479.95-6.4L479.95-6.4Q480.45-5.95 480.8-5.55L480.8-5.55Q478.55-2.55 475.87-0.58 473.2 1.4 470.8 1.95L470.8 1.95Q467.35 1.55 465.42-0.58 463.5-2.7 463.5-5.7L463.5-5.7Q463.5-7.75 464.07-9.88 464.65-12 465.67-13.98 466.7-15.95 468.07-17.7 469.45-19.45 471.02-20.75 472.6-22.05 474.27-22.8 475.95-23.55 477.6-23.55L477.6-23.55Q479.9-23.25 481.9-20.7ZM478.45-19.05L478.45-19.05Q477.1-18.85 475.65-17.95 474.2-17.05 472.92-15.55 471.65-14.05 470.6-12.05 469.55-10.05 468.95-7.75L468.95-7.75Q472.95-9.75 475.6-12.68 478.25-15.6 478.45-19.05ZM483-1L483-1Q483.25-2.45 483.87-4.83 484.5-7.2 485.35-9.88 486.2-12.55 487.15-15.25 488.1-17.95 489-20.1L489-20.1Q489.65-21.65 490.15-22.53 490.65-23.4 491.25-24L491.25-24Q491.95-23.9 492.7-23.65 493.45-23.4 494.15-23.05 494.85-22.7 495.4-22.33 495.95-21.95 496.25-21.6L496.25-21.6Q494.9-20 493.87-17.95 492.85-15.9 491.8-12.7L491.8-12.7Q494.5-15.1 496.57-17.3 498.65-19.5 500.45-22.2L500.45-22.2Q500.75-22.45 501.5-22.45L501.5-22.45Q502.2-22.45 502.85-22.23 503.5-22 503.75-21.6L503.75-21.6Q502.85-19.2 502.85-16.85L502.85-16.85Q502.85-14.65 503.5-13.55L503.5-13.55Q503.45-13.25 502.82-12.4 502.2-11.55 501.45-10.8L501.45-10.8Q500.1-11.5 499.05-12.73 498-13.95 497.5-15.4L497.5-15.4Q495.15-13.75 493.5-12.18 491.85-10.6 490.67-8.68 489.5-6.75 488.67-4.25 487.85-1.75 487.1 1.7L487.1 1.7Q486.65 1.65 486.02 1.38 485.4 1.1 484.77 0.7 484.15 0.3 483.65-0.15 483.15-0.6 483-1ZM520.79-19.9L520.79-19.9Q520.74-18.95 520.47-17.93 520.19-16.9 519.79-16.07 519.39-15.25 518.94-14.7 518.49-14.15 518.09-14.15L518.09-14.15Q517.54-14.2 517.44-14.9L517.44-14.9Q517.44-15.05 517.57-15.38 517.69-15.7 517.84-16.1 517.99-16.5 518.12-16.9 518.24-17.3 518.24-17.6L518.24-17.6Q518.24-18.3 517.92-18.78 517.59-19.25 517.04-19.25L517.04-19.25Q515.04-19.25 513.99-16.75 512.94-14.25 512.94-9.4L512.94-9.4Q512.94-8.9 512.99-8.8L512.99-8.8Q514.04-8.85 514.87-8.88 515.69-8.9 516.49-8.9L516.49-8.9Q516.54-8.8 516.54-8.5L516.54-8.5Q516.54-8.05 516.34-7.85L516.34-7.85Q515.19-7.6 514.52-7.43 513.84-7.25 513.49-7.1 513.14-6.95 513.07-6.78 512.99-6.6 512.99-6.3L512.99-6.3Q512.99-5.9 513.02-5.5 513.04-5.1 513.04-4.5L513.04-4.5Q513.04-0.3 510.77 2.25 508.49 4.8 504.44 5.2L504.44 5.2Q503.74 5.15 502.99 4.8 502.24 4.45 501.57 3.9 500.89 3.35 500.39 2.68 499.89 2 499.69 1.3L499.69 1.3Q499.69-0.6 500.49-2.33 501.29-4.05 502.67-5.38 504.04-6.7 505.92-7.53 507.79-8.35 509.99-8.5L509.99-8.5Q509.99-9.75 509.74-10.95 509.49-12.15 509.22-13.28 508.94-14.4 508.69-15.48 508.44-16.55 508.44-17.6L508.44-17.6Q508.44-18.95 508.99-20.28 509.54-21.6 510.44-22.73 511.34-23.85 512.54-24.65 513.74-25.45 515.04-25.75L515.04-25.75Q515.59-25.6 516.52-24.88 517.44-24.15 518.34-23.25 519.24-22.35 519.94-21.43 520.64-20.5 520.79-19.9ZM504.29 2.9L504.29 2.9Q505.49 2.4 506.57 1.45 507.64 0.5 508.44-0.7 509.24-1.9 509.72-3.25 510.19-4.6 510.19-5.9L510.19-5.9Q509.19-5.75 507.99-4.98 506.79-4.2 505.74-3.13 504.69-2.05 503.99-0.9 503.29 0.25 503.29 1.1L503.29 1.1Q503.29 2.2 504.29 2.9Z" opacity="1" transform="matrix(1,0,0,1,0,0)" fill="#ffffff" class="slogan-text-1" data-fill-palette-color="secondary" id="text-1"></path></svg></g></svg></g></svg></g></svg></g></svg></g><defs></defs></svg><rect width="395.52" height="76.19335800161048" fill="none" stroke="none" visibility="hidden"></rect></g></svg></g></svg>